<?xml version="1.0" standalone="no"?>
<!DOCTYPE svg PUBLIC "-//W3C//DTD SVG 20010904//EN"
 "http://www.w3.org/TR/2001/REC-SVG-20010904/DTD/svg10.dtd">
<svg version="1.0" xmlns="http://www.w3.org/2000/svg"
 width="800.000000pt" height="273.000000pt" viewBox="0 0 800.000000 273.000000"
 preserveAspectRatio="xMidYMid meet">

<g transform="translate(0.000000,273.000000) scale(0.100000,-0.100000)"
fill="#000000" stroke="none">
<path d="M3680 2241 c-70 -24 -268 -111 -301 -132 -23 -16 -24 -17 -8 -50 39
-82 114 -136 172 -125 15 3 27 2 27 -2 0 -8 -57 -101 -295 -477 -45 -71 -100
-162 -123 -200 -75 -127 -363 -364 -607 -500 -55 -30 -127 -55 -162 -55 -23 0
-23 0 -6 38 44 94 192 311 346 507 l79 100 75 13 c96 16 164 50 230 115 60 58
95 125 91 170 -6 67 -75 38 -113 -48 -18 -42 -35 -61 -71 -85 -45 -28 -112
-56 -119 -48 -2 1 26 39 61 83 82 104 262 367 278 408 17 41 6 80 -34 130 -53
63 -61 58 -204 -119 -44 -56 -94 -118 -111 -140 -16 -21 -64 -79 -105 -129
-41 -49 -99 -120 -129 -156 l-53 -67 -36 10 c-58 16 -224 15 -258 -2 -46 -22
-94 -72 -94 -96 0 -31 18 -34 69 -11 34 15 60 18 122 15 43 -2 83 -8 89 -14 7
-7 -25 -60 -105 -175 -123 -175 -139 -192 -255 -271 -41 -28 -94 -66 -118 -85
-118 -90 -107 -65 39 92 128 137 154 177 143 223 -9 38 -47 86 -89 112 -30 19
-33 24 -24 41 8 15 6 34 -7 74 -25 81 -38 89 -131 82 -43 -3 -89 -10 -103 -15
-14 -6 -59 -23 -100 -37 -131 -47 -282 -117 -359 -169 -29 -20 -62 -36 -72
-36 -11 0 -61 -26 -112 -59 -137 -86 -254 -151 -275 -151 -33 0 -112 96 -112
136 0 45 72 101 185 144 106 40 215 111 215 139 0 6 -10 21 -21 32 -21 21 -28
21 -158 16 -172 -7 -256 -35 -314 -103 -25 -30 -57 -122 -57 -166 0 -56 48
-157 97 -205 24 -24 43 -46 43 -50 0 -14 -102 -34 -225 -43 -188 -15 -252 -35
-300 -92 -62 -73 5 -191 135 -237 104 -38 273 -52 354 -30 129 35 234 112 256
186 11 37 10 50 -10 114 -27 82 -29 78 63 125 l48 25 -13 -23 c-27 -49 -38
-96 -38 -163 0 -81 23 -141 73 -193 49 -51 84 -66 157 -66 72 1 97 12 230 103
81 56 100 62 100 30 0 -34 52 -119 82 -135 66 -34 99 -18 267 131 58 52 124
108 147 124 l40 30 1 -49 c1 -62 34 -131 87 -185 57 -56 97 -72 150 -57 102
27 292 132 430 237 47 36 86 64 86 63 0 -2 -9 -27 -21 -57 -11 -31 -18 -65
-14 -78 9 -38 71 -118 114 -147 72 -50 101 -23 213 199 81 161 195 362 254
445 17 25 57 90 89 145 32 55 124 206 205 335 194 310 230 375 230 414 0 49
-34 90 -119 143 -45 28 -114 29 -191 4z m-1666 -992 c-21 -24 -176 -151 -304
-250 -154 -120 -426 -279 -450 -264 -42 26 187 250 367 359 102 61 354 174
392 175 10 1 9 -5 -5 -20z m-1150 -401 c-12 -30 -167 -108 -262 -132 -85 -21
-248 -22 -256 -1 -11 30 101 79 206 89 90 9 186 27 233 42 52 17 86 18 79 2z"/>
<path d="M4557 2253 c-25 -24 9 -165 50 -209 22 -24 28 -25 71 -18 60 11 121
9 134 -4 11 -11 -5 -225 -21 -277 -71 -233 -132 -373 -232 -533 -153 -243
-357 -436 -520 -491 -68 -23 -196 -29 -230 -11 -39 21 -63 88 -63 180 0 116
24 199 107 365 129 260 345 526 563 695 122 95 134 115 104 186 -45 104 -89
118 -196 60 -302 -163 -660 -608 -774 -961 -28 -88 -32 -234 -7 -312 46 -150
149 -280 264 -335 189 -90 323 -75 530 59 216 140 388 317 506 517 39 68 128
274 140 326 3 14 15 66 27 115 15 62 22 125 23 200 0 99 -2 116 -26 168 -47
103 -183 225 -297 267 -53 19 -140 27 -153 13z"/>
<path d="M6257 1468 c-25 -46 -54 -102 -65 -125 -42 -89 -148 -256 -172 -271
-14 -9 -106 -75 -205 -146 -99 -70 -187 -131 -195 -134 -21 -8 -7 9 115 143
133 145 145 161 145 202 0 43 -41 106 -87 133 -30 17 -34 24 -29 46 9 36 -20
131 -44 144 -38 20 -178 5 -255 -29 -11 -5 -54 -21 -95 -36 -180 -66 -345
-164 -448 -265 -108 -107 -147 -169 -161 -261 -28 -170 50 -299 195 -323 63
-11 112 7 229 84 58 39 109 70 113 70 4 0 16 -23 26 -52 10 -29 33 -67 51 -85
63 -63 119 -41 287 109 96 86 164 143 232 194 39 28 39 28 23 4 -26 -40 -59
-139 -59 -175 0 -70 76 -165 131 -165 17 0 51 29 51 43 0 3 21 41 47 84 35 59
87 118 207 237 89 88 206 198 261 244 55 47 108 92 118 100 35 31 25 3 -35
-94 -33 -54 -82 -133 -107 -174 -26 -41 -59 -103 -75 -138 -25 -56 -26 -67
-16 -95 42 -109 62 -137 113 -156 34 -13 56 5 85 71 35 79 108 182 173 243
122 114 279 257 306 278 43 34 235 147 249 147 7 0 -42 -82 -110 -183 -196
-292 -216 -345 -180 -468 19 -66 53 -112 93 -129 44 -18 75 -6 113 42 62 80
164 173 262 239 186 126 316 238 316 272 0 3 -7 12 -15 21 -14 13 -19 13 -53
-1 -47 -19 -173 -103 -310 -206 -59 -44 -113 -82 -121 -85 -18 -7 -8 12 86
155 156 236 179 309 127 388 -34 52 -100 105 -131 105 -32 0 -214 -87 -289
-137 -32 -22 -95 -70 -138 -106 -44 -37 -82 -65 -84 -62 -2 2 1 18 7 36 18 52
14 112 -12 150 -26 38 -93 88 -121 89 -26 0 -129 -75 -286 -209 -163 -141
-180 -154 -185 -150 -2 2 19 56 46 119 26 63 53 139 59 168 11 50 10 55 -14
86 -43 56 -87 96 -106 96 -13 0 -32 -25 -63 -82z m-599 -254 c-145 -130 -345
-281 -488 -370 -95 -58 -218 -120 -225 -112 -31 31 136 206 304 321 115 78
402 213 459 216 7 1 -16 -24 -50 -55z"/>
</g>
</svg>
